<mxfile host="www.draw.io" modified="2020-02-25T08:49:33.538Z" agent="Mozilla/5.0 (Windows NT 6.1; WOW64) AppleWebKit/537.36 (KHTML, like Gecko) Chrome/63.0.3239.132 Safari/537.36" etag="b3SUYdXs_Boq9zesx_-m" version="12.7.4" type="github">
  <diagram id="jaqaJ6uQPk6BbColZ5DN" name="Page-1">
    <mxGraphModel dx="1249" dy="701" grid="1" gridSize="10" guides="1" tooltips="1" connect="1" arrows="1" fold="1" page="1" pageScale="1" pageWidth="827" pageHeight="1169" math="0" shadow="0">
      <root>
        <mxCell id="0" />
        <mxCell id="1" parent="0" />
        <mxCell id="Ykke7SzZzKhqlwrhda0C-1" value="Insert" style="rounded=0;whiteSpace=wrap;html=1;" vertex="1" parent="1">
          <mxGeometry x="340" y="170" width="80" height="40" as="geometry" />
        </mxCell>
      </root>
    </mxGraphModel>
  </diagram>
</mxfile>
